# xmcd
#
# Track frame offsets: 
#        150
#        24450
#        47850
#        70650
#        97200
#        123750
#        147900
#        171150
#        202950
#        224550
#
# Disc length: 3370 seconds
#
# Revision: 1
# Processed by: cddbd v1.5.2PL0 Copyright (c) Steve Scherf et al.
# Submitted via: ExactAudioCopy v1.0b1
#
DISCID=930d280a
DTITLE=Krzysztof Herdzin - Dancing Flowers
DYEAR=2005
DGENRE=Jazz
TTITLE0=Pasmanteria
TTITLE1=Pyłem Księżycowym
TTITLE2=Black Jack
TTITLE3=Rocco
TTITLE4=Cytrynowy Spray
TTITLE5=Bukiet Fiołków
TTITLE6=Thelonious Funk
TTITLE7=Dancing Flowers
TTITLE8=Niech Ci Będzie
TTITLE9=Amazing Duck
EXTD=YEAR: 2005
EXTT0=
EXTT1=
EXTT2=
EXTT3=
EXTT4=
EXTT5=
EXTT6=
EXTT7=
EXTT8=
EXTT9=
PLAYORDER=
